<svg width="19" height="27" viewBox="0 0 19 27" fill="none" xmlns="http://www.w3.org/2000/svg">
<path d="M9.4777 5.88622C10.4446 5.88622 11.372 6.24679 12.0557 6.88862C12.7394 7.53044 13.1235 8.40094 13.1235 9.30862C13.1235 10.2163 12.7394 11.0868 12.0557 11.7286C11.372 12.3704 10.4446 12.731 9.4777 12.731C8.51076 12.731 7.58343 12.3704 6.89971 11.7286C6.21598 11.0868 5.83187 10.2163 5.83187 9.30862C5.83187 8.40094 6.21598 7.53044 6.89971 6.88862C7.58343 6.24679 8.51076 5.88622 9.4777 5.88622V5.88622ZM9.4777 7.25518C8.89754 7.25518 8.34114 7.47152 7.9309 7.85662C7.52067 8.24171 7.2902 8.76401 7.2902 9.30862C7.2902 9.85322 7.52067 10.3755 7.9309 10.7606C8.34114 11.1457 8.89754 11.3621 9.4777 11.3621C10.0579 11.3621 10.6143 11.1457 11.0245 10.7606C11.4347 10.3755 11.6652 9.85322 11.6652 9.30862C11.6652 8.76401 11.4347 8.24171 11.0245 7.85662C10.6143 7.47152 10.0579 7.25518 9.4777 7.25518V7.25518ZM2.62354 13.2197L9.4777 23.8018L16.3319 13.2197C17.0711 12.078 17.4733 10.7722 17.4974 9.43638C17.5214 8.10053 17.1664 6.78273 16.4687 5.61823C15.7709 4.45373 14.7557 3.48448 13.5272 2.80996C12.2986 2.13543 10.901 1.77992 9.4777 1.77992C8.05443 1.77992 6.6568 2.13543 5.42824 2.80996C4.19968 3.48448 3.18445 4.45373 2.48674 5.61823C1.78903 6.78273 1.43398 8.10053 1.45802 9.43638C1.48206 10.7722 1.88433 12.078 2.62354 13.2197V13.2197ZM17.5773 13.9316L9.4777 26.437L1.37812 13.9316C0.50476 12.5823 0.0295764 11.0391 0.00133655 9.46049C-0.0269033 7.88185 0.392817 6.32458 1.21743 4.9485C2.04204 3.57242 3.24184 2.42707 4.69371 1.63C6.14557 0.832932 7.79722 0.412842 9.47916 0.412842C11.1611 0.412842 12.8127 0.832932 14.2646 1.63C15.7165 2.42707 16.9163 3.57242 17.7409 4.9485C18.5655 6.32458 18.9852 7.88185 18.957 9.46049C18.9287 11.0391 18.4536 12.5823 17.5802 13.9316H17.5773V13.9316Z" fill="#F32E37"/>
</svg>
