<svg width="60" height="60" viewBox="0 0 60 60" fill="none" xmlns="http://www.w3.org/2000/svg">
<circle cx="30" cy="30" r="30" fill="#3799D1"/>
<path d="M19.9994 15H38.3328L44.8361 24.2883L29.1661 46.6667L13.4961 24.2883L19.9994 15ZM26.9361 16.6667L24.1061 23.3333H34.2261L31.3961 16.6667H26.9361ZM23.8778 25L29.1661 41.2733L34.4528 25H23.8794H23.8778ZM16.1994 23.3333H22.2961L25.1261 16.6667H20.8661L16.1994 23.3333ZM16.0294 25L27.4044 41.245L22.1261 25H16.0294ZM42.1328 23.3333L37.4661 16.6667H33.2061L36.0361 23.3333H42.1328ZM42.3028 25H36.2061L30.9278 41.245L42.3028 25Z" fill="white"/>
</svg>
