<svg width="60" height="60" viewBox="0 0 60 60" fill="none" xmlns="http://www.w3.org/2000/svg">
<circle cx="30" cy="30" r="30" fill="#3799D1"/>
<path d="M13.6553 17.4283L14.8336 16.25L42.7503 44.1667L41.5719 45.345L37.5336 41.3067C36.6239 41.6733 35.6265 41.7643 34.6655 41.5684C33.7045 41.3725 32.8224 40.8982 32.1289 40.2047C31.4354 39.5112 30.9611 38.6291 30.7652 37.6681C30.5693 36.7071 30.6603 35.7097 31.0269 34.8L24.0003 27.7733V38.3333C24.0003 39.4782 23.6075 40.5883 22.8874 41.4784C22.1673 42.3684 21.1636 42.9843 20.044 43.2233C18.9243 43.4623 17.7566 43.3098 16.7359 42.7913C15.7152 42.2729 14.9033 41.4198 14.4359 40.3747C13.9686 39.3297 13.874 38.1558 14.168 37.0494C14.462 35.9429 15.1268 34.9709 16.0513 34.2957C16.9758 33.6205 18.104 33.283 19.2475 33.3396C20.3909 33.3962 21.4803 33.8434 22.3336 34.6067V26.1067L13.6553 17.4283ZM22.3336 20.1733L40.6669 18.3117V36.6667C40.6669 37.55 40.4386 38.3767 40.0369 39.0967L38.7869 37.8467C39.0145 37.2463 39.0638 36.5931 38.929 35.9654C38.7942 35.3377 38.481 34.7622 38.027 34.3083C37.573 33.8543 36.9976 33.5411 36.3699 33.4063C35.7422 33.2715 35.0889 33.3208 34.4886 33.5483L33.2369 32.2967C33.9553 31.895 34.7836 31.6667 35.6669 31.6667C36.9469 31.6667 38.1169 32.1483 39.0003 32.94V25.0733L27.3053 26.3633L25.7936 24.8533L39.0003 23.3967V20.1567L24.0003 21.68V23.06L22.3336 21.3933V20.1733ZM32.3336 36.6667C32.3335 37.1485 32.4378 37.6245 32.6394 38.0621C32.841 38.4997 33.135 38.8884 33.5012 39.2014C33.8675 39.5144 34.2972 39.7444 34.7609 39.8753C35.2245 40.0063 35.7111 40.0352 36.1869 39.96L32.3736 36.1467C32.3468 36.3187 32.3334 36.4926 32.3336 36.6667ZM22.3336 38.3333C22.3336 37.4493 21.9824 36.6014 21.3573 35.9763C20.7322 35.3512 19.8843 35 19.0003 35C18.1162 35 17.2684 35.3512 16.6433 35.9763C16.0181 36.6014 15.6669 37.4493 15.6669 38.3333C15.6669 39.2174 16.0181 40.0652 16.6433 40.6904C17.2684 41.3155 18.1162 41.6667 19.0003 41.6667C19.8843 41.6667 20.7322 41.3155 21.3573 40.6904C21.9824 40.0652 22.3336 39.2174 22.3336 38.3333Z" fill="white"/>
</svg>
