<svg width="60" height="60" viewBox="0 0 60 60" fill="none" xmlns="http://www.w3.org/2000/svg">
<circle cx="30" cy="30" r="30" fill="#3799D1"/>
<path d="M21.333 36.6667C22.6591 36.6667 23.9309 37.1935 24.8685 38.1311C25.8062 39.0688 26.333 40.3406 26.333 41.6667C26.333 42.9928 25.8062 44.2645 24.8685 45.2022C23.9309 46.1399 22.6591 46.6667 21.333 46.6667C20.0069 46.6667 18.7352 46.1399 17.7975 45.2022C16.8598 44.2645 16.333 42.9928 16.333 41.6667C16.333 40.3406 16.8598 39.0688 17.7975 38.1311C18.7352 37.1935 20.0069 36.6667 21.333 36.6667ZM21.333 38.3333C20.449 38.3333 19.6011 38.6845 18.976 39.3096C18.3509 39.9348 17.9997 40.7826 17.9997 41.6667C17.9997 42.5507 18.3509 43.3986 18.976 44.0237C19.6011 44.6488 20.449 45 21.333 45C22.2171 45 23.0649 44.6488 23.69 44.0237C24.3152 43.3986 24.6663 42.5507 24.6663 41.6667C24.6663 40.7826 24.3152 39.9348 23.69 39.3096C23.0649 38.6845 22.2171 38.3333 21.333 38.3333ZM16.333 28.3333C26.458 28.3333 34.6663 36.5417 34.6663 46.6667H32.9997C32.9997 37.4617 25.538 30 16.333 30V28.3333ZM16.333 21.6667C30.1397 21.6667 41.333 32.86 41.333 46.6667H39.6663C39.6663 33.78 29.2197 23.3333 16.333 23.3333V21.6667ZM16.333 15C33.8213 15 47.9997 29.1783 47.9997 46.6667H46.333C46.333 30.0983 32.9013 16.6667 16.333 16.6667V15Z" fill="white"/>
</svg>
