<svg width="60" height="60" viewBox="0 0 60 60" fill="none" xmlns="http://www.w3.org/2000/svg">
<circle cx="30" cy="30" r="30" fill="#3799D1"/>
<path d="M13.3337 26.6667H18.3337C18.7757 26.6667 19.1996 26.8423 19.5122 27.1549C19.8247 27.4674 20.0003 27.8914 20.0003 28.3334V43.3334C20.0003 43.7754 19.8247 44.1993 19.5122 44.5119C19.1996 44.8245 18.7757 45.0001 18.3337 45.0001H13.3337C12.8916 45.0001 12.4677 44.8245 12.1551 44.5119C11.8426 44.1993 11.667 43.7754 11.667 43.3334V28.3334C11.667 27.8914 11.8426 27.4674 12.1551 27.1549C12.4677 26.8423 12.8916 26.6667 13.3337 26.6667ZM13.3337 28.3334V43.3334H18.3337V28.3334H13.3337ZM39.527 41.7084L44.5287 33.3751C44.8287 32.8751 45.0003 32.2917 45.0003 31.6667V30.0001C45.0003 29.116 44.6491 28.2682 44.024 27.643C43.3989 27.0179 42.551 26.6667 41.667 26.6667H32.317L34.7453 17.6001L34.7537 17.5701C34.8296 17.2876 34.8298 16.9901 34.7543 16.7075C34.6788 16.4249 34.5303 16.1671 34.3237 15.9601L24.3087 25.9751C23.9988 26.2845 23.7531 26.6522 23.5858 27.0569C23.4184 27.4616 23.3328 27.8954 23.3337 28.3334V40.0001C23.3337 40.8841 23.6848 41.732 24.31 42.3571C24.9351 42.9822 25.7829 43.3334 26.667 43.3334H36.667C37.8837 43.3334 38.947 42.6834 39.527 41.7084ZM46.667 31.6667C46.667 32.6567 46.3803 33.5784 45.8837 34.3534L41.0403 42.4251C40.6075 43.2055 39.9737 43.8559 39.2046 44.3087C38.4356 44.7615 37.5594 45.0002 36.667 45.0001H26.667C25.3409 45.0001 24.0691 44.4733 23.1315 43.5356C22.1938 42.5979 21.667 41.3261 21.667 40.0001V28.3334C21.667 26.9534 22.2253 25.7051 23.1287 24.8001L34.3237 13.6034L35.502 14.7817C35.9236 15.2034 36.2245 15.7304 36.3731 16.3079C36.5217 16.8854 36.5127 17.4922 36.347 18.0651L34.4887 25.0001H41.667C42.9931 25.0001 44.2648 25.5268 45.2025 26.4645C46.1402 27.4022 46.667 28.674 46.667 30.0001V31.6667Z" fill="white"/>
</svg>
