<svg width="60" height="60" viewBox="0 0 60 60" fill="none" xmlns="http://www.w3.org/2000/svg">
<circle cx="30" cy="30" r="30" fill="#3799D1"/>
<g clip-path="url(#clip0)">
<path d="M19.1654 39.3334C16.7343 39.3338 14.4025 38.3684 12.6831 36.6497C10.9637 34.9309 9.99751 32.5995 9.99707 30.1684C9.99663 27.7372 10.962 25.4054 12.6807 23.6861C14.3995 21.9667 16.7309 21.0005 19.1621 21C20.1006 18.7513 21.7697 16.8845 23.8998 15.7011C26.0299 14.5177 28.4966 14.0868 30.9018 14.4778C33.3069 14.8689 35.5101 16.0592 37.1555 17.8564C38.8009 19.6537 39.7926 21.9531 39.9704 24.3834L40.8321 24.3334C42.8212 24.3334 44.7288 25.1235 46.1354 26.5301C47.5419 27.9366 48.3321 29.8442 48.3321 31.8334C48.3321 33.8225 47.5419 35.7301 46.1354 37.1367C44.7288 38.5432 42.8212 39.3334 40.8321 39.3334H19.1654ZM19.1654 22.6667C17.1763 22.6667 15.2686 23.4569 13.8621 24.8634C12.4556 26.2699 11.6654 28.1776 11.6654 30.1667C11.6654 32.1558 12.4556 34.0635 13.8621 35.47C15.2686 36.8765 17.1763 37.6667 19.1654 37.6667H40.8321C41.712 37.666 42.5803 37.4663 43.372 37.0824C44.1638 36.6986 44.8585 36.1407 45.404 35.4504C45.9496 34.76 46.332 33.9552 46.5225 33.0962C46.7129 32.2372 46.7066 31.3462 46.504 30.49C46.3014 29.6338 45.9077 28.8345 45.3524 28.1519C44.7971 27.4694 44.0946 26.9213 43.2975 26.5488C42.5004 26.1762 41.6293 25.9888 40.7495 26.0005C39.8697 26.0123 39.0039 26.2229 38.2171 26.6167L38.3321 25.1667C38.3347 22.9444 37.5299 20.7968 36.0674 19.1235C34.605 17.4502 32.5845 16.3652 30.3818 16.0703C28.1792 15.7754 25.9444 16.2907 24.0933 17.5204C22.2422 18.75 20.9008 20.6103 20.3187 22.755L19.1654 22.6667ZM29.9987 22.6667V31.4167L33.7487 27.6667L34.9987 28.7733L29.1654 34.6067L23.3321 28.7733L24.5821 27.6667L28.3321 31.4167V22.6667H29.9987Z" fill="white"/>
</g>
<defs>
<clipPath id="clip0">
<rect width="40" height="40" fill="white" transform="translate(10 6)"/>
</clipPath>
</defs>
</svg>
