<svg width="43" height="63" viewBox="0 0 43 63" fill="none" xmlns="http://www.w3.org/2000/svg">
<path d="M7.5 9.31704H13.75C13.75 6.84601 14.5402 4.47618 15.9467 2.7289C17.3532 0.981614 19.2609 0 21.25 0C23.2391 0 25.1468 0.981614 26.5533 2.7289C27.9598 4.47618 28.75 6.84601 28.75 9.31704H35C36.9891 9.31704 38.8968 10.2987 40.3033 12.0459C41.7098 13.7932 42.5 16.163 42.5 18.6341V52.7965C42.5 55.2676 41.7098 57.6374 40.3033 59.3847C38.8968 61.132 36.9891 62.1136 35 62.1136H7.5C5.51088 62.1136 3.60322 61.132 2.1967 59.3847C0.790177 57.6374 0 55.2676 0 52.7965V18.6341C0 16.163 0.790177 13.7932 2.1967 12.0459C3.60322 10.2987 5.51088 9.31704 7.5 9.31704ZM7.5 12.4227C6.17392 12.4227 4.90215 13.0771 3.96447 14.242C3.02678 15.4068 2.5 16.9867 2.5 18.6341V52.7965C2.5 54.4439 3.02678 56.0238 3.96447 57.1886C4.90215 58.3535 6.17392 59.0079 7.5 59.0079H35C36.3261 59.0079 37.5979 58.3535 38.5355 57.1886C39.4732 56.0238 40 54.4439 40 52.7965V18.6341C40 16.9867 39.4732 15.4068 38.5355 14.242C37.5979 13.0771 36.3261 12.4227 35 12.4227H32.5V21.7398H10V12.4227H7.5ZM12.5 18.6341H30V12.4227H12.5V18.6341ZM21.25 3.10568C19.9239 3.10568 18.6521 3.76009 17.7145 4.92494C16.7768 6.0898 16.25 7.66968 16.25 9.31704H26.25C26.25 7.66968 25.7232 6.0898 24.7855 4.92494C23.8479 3.76009 22.5761 3.10568 21.25 3.10568ZM35.375 29.8145L17.5 52.0201L9.5 42.082L11.2675 39.8862L17.5 47.6287L33.605 27.6188L35.3725 29.8145H35.375Z" fill="white"/>
</svg>
