<svg width="40" height="40" viewBox="0 0 40 40" fill="none" xmlns="http://www.w3.org/2000/svg">
<path d="M10 6.66666H13.3333V8.33332H10C9.11594 8.33332 8.2681 8.68451 7.64298 9.30963C7.01786 9.93475 6.66667 10.7826 6.66667 11.6667V15H5V11.6667C5 10.3406 5.52678 9.0688 6.46447 8.13112C7.40215 7.19344 8.67392 6.66666 10 6.66666ZM6.66667 30C6.66667 30.884 7.01786 31.7319 7.64298 32.357C8.2681 32.9821 9.11594 33.3333 10 33.3333H13.3333V35H10C8.67392 35 7.40215 34.4732 6.46447 33.5355C5.52678 32.5978 5 31.3261 5 30V26.6667H6.66667V30ZM28.3333 6.66666C29.6594 6.66666 30.9312 7.19344 31.8689 8.13112C32.8065 9.0688 33.3333 10.3406 33.3333 11.6667V15H31.6667V11.6667C31.6667 10.7826 31.3155 9.93475 30.6904 9.30963C30.0652 8.68451 29.2174 8.33332 28.3333 8.33332H25V6.66666H28.3333ZM33.3333 30C33.3333 31.3261 32.8065 32.5978 31.8689 33.5355C30.9312 34.4732 29.6594 35 28.3333 35H25V33.3333H28.3333C29.2174 33.3333 30.0652 32.9821 30.6904 32.357C31.3155 31.7319 31.6667 30.884 31.6667 30V26.6667H33.3333V30Z" fill="white"/>
</svg>
