<svg width="40" height="40" viewBox="0 0 40 40" fill="none" xmlns="http://www.w3.org/2000/svg">
<path d="M18.333 4.16669L33.333 11.6667V15H3.33301V11.6667L18.333 4.16669ZM24.9997 16.6667H31.6663V30H24.9997V16.6667ZM3.33301 36.6667V31.6667H33.333V36.6667H3.33301ZM14.9997 16.6667H21.6663V30H14.9997V16.6667ZM4.99967 16.6667H11.6663V30H4.99967V16.6667ZM4.99967 33.3334V35H31.6663V33.3334H4.99967ZM6.66634 18.3334V28.3334H9.99967V18.3334H6.66634ZM16.6663 18.3334V28.3334H19.9997V18.3334H16.6663ZM26.6663 18.3334V28.3334H29.9997V18.3334H26.6663ZM4.99967 13.3334H31.6663V12.6667L18.333 5.96835L4.99967 12.6684V13.3334Z" fill="white"/>
</svg>
