<svg width="40" height="40" viewBox="0 0 40 40" fill="none" xmlns="http://www.w3.org/2000/svg">
<path d="M19.167 23.3333C26.0703 23.3333 31.667 25.945 31.667 29.1666V33.3333H6.66699V29.1666C6.66699 25.945 12.2637 23.3333 19.167 23.3333ZM30.0003 29.1666C30.0003 26.8666 25.1503 25 19.167 25C13.1837 25 8.33366 26.8666 8.33366 29.1666V31.6666H30.0003V29.1666ZM19.167 8.33331C20.7141 8.33331 22.1978 8.94789 23.2918 10.0419C24.3857 11.1358 25.0003 12.6196 25.0003 14.1666C25.0003 15.7137 24.3857 17.1975 23.2918 18.2914C22.1978 19.3854 20.7141 20 19.167 20C17.6199 20 16.1362 19.3854 15.0422 18.2914C13.9482 17.1975 13.3337 15.7137 13.3337 14.1666C13.3337 12.6196 13.9482 11.1358 15.0422 10.0419C16.1362 8.94789 17.6199 8.33331 19.167 8.33331ZM19.167 9.99998C18.0619 9.99998 17.0021 10.439 16.2207 11.2204C15.4393 12.0018 15.0003 13.0616 15.0003 14.1666C15.0003 15.2717 15.4393 16.3315 16.2207 17.1129C17.0021 17.8943 18.0619 18.3333 19.167 18.3333C20.2721 18.3333 21.3319 17.8943 22.1133 17.1129C22.8947 16.3315 23.3337 15.2717 23.3337 14.1666C23.3337 13.0616 22.8947 12.0018 22.1133 11.2204C21.3319 10.439 20.2721 9.99998 19.167 9.99998Z" fill="white"/>
</svg>
