<svg width="40" height="40" viewBox="0 0 40 40" fill="none" xmlns="http://www.w3.org/2000/svg">
<path d="M30.0003 31.6667C30.0003 32.9928 29.4735 34.2645 28.5359 35.2022C27.5982 36.1399 26.3264 36.6667 25.0003 36.6667H13.3337C12.0076 36.6667 10.7358 36.1399 9.79813 35.2022C8.86044 34.2645 8.33366 32.9928 8.33366 31.6667V11.6667H6.66699V6.66667H14.167L15.8337 5H22.5003L24.167 6.66667H31.667V11.6667H30.0003V31.6667ZM10.0003 11.6667V31.6667C10.0003 32.5507 10.3515 33.3986 10.9766 34.0237C11.6018 34.6488 12.4496 35 13.3337 35H25.0003C25.8844 35 26.7322 34.6488 27.3573 34.0237C27.9825 33.3986 28.3337 32.5507 28.3337 31.6667V11.6667H10.0003ZM30.0003 10V8.33333H23.3337L21.667 6.66667H16.667L15.0003 8.33333H8.33366V10H30.0003ZM13.3337 15H15.0003V31.6667H13.3337V15ZM23.3337 15H25.0003V31.6667H23.3337V15Z" fill="white"/>
</svg>
