<svg width="24" height="24" viewBox="0 0 24 24" fill="none" xmlns="http://www.w3.org/2000/svg">
<path d="M21 9.00008V18.0001C21 18.7957 20.6839 19.5588 20.1213 20.1214C19.5587 20.684 18.7956 21.0001 18 21.0001H5C4.20435 21.0001 3.44129 20.684 2.87868 20.1214C2.31607 19.5588 2 18.7957 2 18.0001V9.00008C2 7.89008 2.603 6.92008 3.5 6.40208L3.497 6.39808L11.498 1.77808L19.505 6.40108L19.504 6.40408C19.9591 6.66763 20.3368 7.04622 20.5994 7.50187C20.862 7.95751 21.0001 8.47419 21 9.00008ZM3.717 7.46608L11.5 12.5201L19.283 7.46608L11.498 2.93308L3.717 7.46608ZM11.5 13.7121L3.134 8.28008C3.04529 8.50975 2.99985 8.75386 3 9.00008V18.0001C3 18.5305 3.21071 19.0392 3.58579 19.4143C3.96086 19.7894 4.46957 20.0001 5 20.0001H18C18.5304 20.0001 19.0391 19.7894 19.4142 19.4143C19.7893 19.0392 20 18.5305 20 18.0001V9.00008C20 8.74608 19.953 8.50308 19.866 8.28008L11.5 13.7111V13.7121Z" fill="#ABABAB"/>
</svg>
