<svg width="40" height="40" viewBox="0 0 40 40" fill="none" xmlns="http://www.w3.org/2000/svg">
<path d="M26.6663 20C25.3403 20 24.0685 19.4732 23.1308 18.5355C22.1931 17.5978 21.6663 16.3261 21.6663 15V8.33332H8.33301C7.44895 8.33332 6.60111 8.68451 5.97599 9.30963C5.35086 9.93475 4.99967 10.7826 4.99967 11.6667V30C4.99967 30.884 5.35086 31.7319 5.97599 32.357C6.60111 32.9821 7.44895 33.3333 8.33301 33.3333H29.9997C30.8837 33.3333 31.7316 32.9821 32.3567 32.357C32.9818 31.7319 33.333 30.884 33.333 30V20H26.6663ZM23.333 15C23.333 15.884 23.6842 16.7319 24.3093 17.357C24.9344 17.9821 25.7823 18.3333 26.6663 18.3333H32.643L23.333 9.02332V15ZM8.33301 6.66666H23.333L34.9997 18.3333V30C34.9997 31.3261 34.4729 32.5978 33.5352 33.5355C32.5975 34.4732 31.3258 35 29.9997 35H8.33301C7.00693 35 5.73516 34.4732 4.79747 33.5355C3.85979 32.5978 3.33301 31.3261 3.33301 30V11.6667C3.33301 10.3406 3.85979 9.0688 4.79747 8.13112C5.73516 7.19344 7.00693 6.66666 8.33301 6.66666ZM8.33301 13.3333H18.333V15H8.33301V13.3333ZM8.33301 20H18.333V21.6667H8.33301V20ZM8.33301 26.6667H29.9997V28.3333H8.33301V26.6667Z" fill="white"/>
</svg>
